<svg xmlns="http://www.w3.org/2000/svg" viewBox="0 0 38.62 40.27"><defs><style>.cls-1{fill:none;stroke:#000;stroke-linecap:round;stroke-linejoin:round;stroke-width:4px;}</style></defs><g id="Layer_2" data-name="Layer 2"><g id="Layer_1-2" data-name="Layer 1"><polygon points="5.67 30.45 11.34 33.72 5.67 37 0 40.27 0 33.72 0 27.18 5.67 30.45"/><path class="cls-1" d="M10.05,11V6.1A4.1,4.1,0,0,1,14.15,2H24.66a3.91,3.91,0,0,1,3.91,3.9V11"/><path d="M34.11,11H4.51A4.5,4.5,0,0,0,0,15.5V32.22a4.51,4.51,0,0,0,4.51,4.51h29.6a4.51,4.51,0,0,0,4.51-4.51V15.5A4.5,4.5,0,0,0,34.11,11ZM21.29,23.31v8.48h-4V23.3a4,4,0,1,1,4,0Z"/></g></g></svg>